<svg width="24" height="24" viewBox="0 0 24 24" fill="none" xmlns="http://www.w3.org/2000/svg">
<path fill-rule="evenodd" clip-rule="evenodd" d="M2 2H2.5H21.5H22V2.5V21.5V22H21.5H2.5H2V21.5V2.5V2ZM18.0303 8.53033L18.5607 8L17.5 6.93934L16.9697 7.46967L10.5 13.9393L8.03033 11.4697L7.5 10.9393L6.43934 12L6.96967 12.5303L9.96967 15.5303L10.5 16.0607L11.0303 15.5303L18.0303 8.53033Z" fill="#218D87"/>
<path fill-rule="evenodd" clip-rule="evenodd" d="M1.5 1.5H2.5H21.5H22.5V2.5V21.5V22.5H21.5H2.5H1.5V21.5V2.5V1.5ZM3.5 3.5V20.5H20.5V3.5H3.5Z" fill="#218D87"/>
</svg>
