<svg width="24" height="24" viewBox="0 0 24 24" fill="none" xmlns="http://www.w3.org/2000/svg">
<path fill-rule="evenodd" clip-rule="evenodd" d="M3.49995 2.79297L3.85351 3.14652L12 11.293L20.1464 3.14652L20.5 2.79297L21.2071 3.50008L20.8535 3.85363L12.7071 12.0001L20.8535 20.1465L21.2071 20.5001L20.5 21.2072L20.1464 20.8536L12 12.7072L3.85351 20.8536L3.49995 21.2072L2.79285 20.5001L3.1464 20.1465L11.2928 12.0001L3.1464 3.85363L2.79285 3.50008L3.49995 2.79297Z" fill="#C5C5C5"/>
<path d="M3.85351 3.14652L3.49995 3.50008L3.85351 3.14652ZM3.49995 2.79297L3.85351 2.43942C3.65824 2.24415 3.34166 2.24415 3.1464 2.43942L3.49995 2.79297ZM12 11.293L11.6464 11.6465C11.8417 11.8418 12.1582 11.8418 12.3535 11.6465L12 11.293ZM20.1464 3.14652L19.7928 2.79297V2.79297L20.1464 3.14652ZM20.5 2.79297L20.8535 2.43942C20.6582 2.24415 20.3417 2.24415 20.1464 2.43942L20.5 2.79297ZM21.2071 3.50008L21.5606 3.85363C21.6544 3.75986 21.7071 3.63268 21.7071 3.50008C21.7071 3.36747 21.6544 3.24029 21.5606 3.14652L21.2071 3.50008ZM20.8535 3.85363L20.5 3.50008V3.50008L20.8535 3.85363ZM12.7071 12.0001L12.3535 11.6465C12.1582 11.8418 12.1582 12.1584 12.3535 12.3536L12.7071 12.0001ZM21.2071 20.5001L21.5606 20.8536C21.7559 20.6584 21.7559 20.3418 21.5606 20.1465L21.2071 20.5001ZM20.5 21.2072L20.1464 21.5607C20.3417 21.756 20.6582 21.756 20.8535 21.5607L20.5 21.2072ZM12 12.7072L12.3535 12.3536C12.1582 12.1584 11.8417 12.1584 11.6464 12.3536L12 12.7072ZM3.85351 20.8536L3.49995 20.5001H3.49995L3.85351 20.8536ZM3.49995 21.2072L3.1464 21.5607C3.24017 21.6545 3.36735 21.7072 3.49995 21.7072C3.63256 21.7072 3.75974 21.6545 3.85351 21.5607L3.49995 21.2072ZM2.79285 20.5001L2.43929 20.1465C2.24403 20.3418 2.24403 20.6584 2.43929 20.8536L2.79285 20.5001ZM3.1464 20.1465L2.79285 19.793H2.79285L3.1464 20.1465ZM11.2928 12.0001L11.6464 12.3536C11.8417 12.1584 11.8417 11.8418 11.6464 11.6465L11.2928 12.0001ZM3.1464 3.85363L3.49995 3.50008L3.1464 3.85363ZM2.79285 3.50008L2.43929 3.14652C2.24403 3.34178 2.24403 3.65837 2.43929 3.85363L2.79285 3.50008ZM4.20706 2.79297L3.85351 2.43942L3.1464 3.14652L3.49995 3.50008L4.20706 2.79297ZM12.3535 10.9394L4.20706 2.79297L3.49995 3.50008L11.6464 11.6465L12.3535 10.9394ZM19.7928 2.79297L11.6464 10.9394L12.3535 11.6465L20.5 3.50008L19.7928 2.79297ZM20.1464 2.43942L19.7928 2.79297L20.5 3.50008L20.8535 3.14652L20.1464 2.43942ZM21.5606 3.14652L20.8535 2.43942L20.1464 3.14652L20.8535 3.85363L21.5606 3.14652ZM21.2071 4.20718L21.5606 3.85363L20.8535 3.14652L20.5 3.50008L21.2071 4.20718ZM13.0606 12.3536L21.2071 4.20718L20.5 3.50008L12.3535 11.6465L13.0606 12.3536ZM21.2071 19.793L13.0606 11.6465L12.3535 12.3536L20.5 20.5001L21.2071 19.793ZM21.5606 20.1465L21.2071 19.793L20.5 20.5001L20.8535 20.8536L21.5606 20.1465ZM20.8535 21.5607L21.5606 20.8536L20.8535 20.1465L20.1464 20.8536L20.8535 21.5607ZM19.7928 21.2072L20.1464 21.5607L20.8535 20.8536L20.5 20.5001L19.7928 21.2072ZM11.6464 13.0607L19.7928 21.2072L20.5 20.5001L12.3535 12.3536L11.6464 13.0607ZM4.20706 21.2072L12.3535 13.0607L11.6464 12.3536L3.49995 20.5001L4.20706 21.2072ZM3.85351 21.5607L4.20706 21.2072L3.49995 20.5001L3.1464 20.8536L3.85351 21.5607ZM2.43929 20.8536L3.1464 21.5607L3.85351 20.8536L3.1464 20.1465L2.43929 20.8536ZM2.79285 19.793L2.43929 20.1465L3.1464 20.8536L3.49995 20.5001L2.79285 19.793ZM10.9393 11.6465L2.79285 19.793L3.49995 20.5001L11.6464 12.3536L10.9393 11.6465ZM2.79285 4.20718L10.9393 12.3536L11.6464 11.6465L3.49995 3.50008L2.79285 4.20718ZM2.43929 3.85363L2.79285 4.20718L3.49995 3.50008L3.1464 3.14652L2.43929 3.85363ZM3.1464 2.43942L2.43929 3.14652L3.1464 3.85363L3.85351 3.14652L3.1464 2.43942Z" fill="#C5C5C5"/>
</svg>
