<svg width="66" height="66" viewBox="0 0 66 66" fill="none" xmlns="http://www.w3.org/2000/svg">
<path fill-rule="evenodd" clip-rule="evenodd" d="M25.1287 3.7627H25.4377H40.5627H40.8717L41.0099 4.03909L43.8967 9.8127H61.7377H62.2377V10.8127H61.7377H43.5877H22.4127H4.2627H3.7627V9.8127H4.2627H22.1037L24.9905 4.03909L25.1287 3.7627ZM23.2217 9.8127H42.7787L40.2537 4.7627H25.7467L23.2217 9.8127ZM9.7416 15.8627H10.3127H55.6877H56.2588L56.1833 16.4288L50.1333 61.8038L50.0755 62.2377H49.6377H16.3627H15.9249L15.8671 61.8038L9.81708 16.4288L9.7416 15.8627ZM10.8838 16.8627L16.8005 61.2377H49.1999L55.1166 16.8627H10.8838ZM22.8605 23.3779L22.9102 23.8754L25.9352 54.1254L25.985 54.623L24.9899 54.7225L24.9402 54.2249L21.9152 23.9749L21.8654 23.4774L22.8605 23.3779ZM44.135 23.4774L44.0852 23.9749L41.0602 54.2249L41.0105 54.7225L40.0154 54.623L40.0652 54.1254L43.0902 23.8754L43.1399 23.3779L44.135 23.4774ZM33.5002 23.4252V23.9252V54.1752V54.6752H32.5002V54.1752V23.9252V23.4252H33.5002Z" fill="#EE5626"/>
<path d="M25.1287 3.7627V2.2627H24.2016L23.787 3.09187L25.1287 3.7627ZM40.8717 3.7627L42.2134 3.09188L41.7988 2.2627H40.8717V3.7627ZM41.0099 4.03909L39.6683 4.7099L39.6683 4.70991L41.0099 4.03909ZM43.8967 9.8127L42.5551 10.4835L42.9697 11.3127H43.8967V9.8127ZM62.2377 9.8127H63.7377V8.3127H62.2377V9.8127ZM62.2377 10.8127V12.3127H63.7377V10.8127H62.2377ZM3.7627 10.8127H2.2627V12.3127H3.7627V10.8127ZM3.7627 9.8127V8.3127H2.2627V9.8127H3.7627ZM22.1037 9.8127V11.3127H23.0307L23.4453 10.4835L22.1037 9.8127ZM24.9905 4.03909L23.6488 3.36827L23.6488 3.36827L24.9905 4.03909ZM42.7787 9.8127V11.3127H45.2057L44.1203 9.14187L42.7787 9.8127ZM23.2217 9.8127L21.8801 9.14187L20.7947 11.3127H23.2217V9.8127ZM40.2537 4.7627L41.5953 4.09187L41.1807 3.2627H40.2537V4.7627ZM25.7467 4.7627V3.2627H24.8197L24.4051 4.09187L25.7467 4.7627ZM9.7416 15.8627V14.3627H8.02833L8.25476 16.0609L9.7416 15.8627ZM56.2588 15.8627L57.7456 16.0609L57.9721 14.3627H56.2588V15.8627ZM56.1833 16.4288L54.6965 16.2305L56.1833 16.4288ZM50.1333 61.8038L51.6201 62.002L51.6202 62.002L50.1333 61.8038ZM50.0755 62.2377V63.7377H51.3887L51.5623 62.4359L50.0755 62.2377ZM15.9249 62.2377L14.4381 62.4359L14.6117 63.7377H15.9249V62.2377ZM15.8671 61.8038L17.3539 61.6055L17.3539 61.6055L15.8671 61.8038ZM9.81708 16.4288L11.3039 16.2305L9.81708 16.4288ZM16.8005 61.2377L15.3136 61.4359L15.4872 62.7377H16.8005V61.2377ZM10.8838 16.8627V15.3627H9.17051L9.39694 17.0609L10.8838 16.8627ZM49.1999 61.2377V62.7377H50.5132L50.6868 61.4359L49.1999 61.2377ZM55.1166 16.8627L56.6034 17.0609L56.8299 15.3627H55.1166V16.8627ZM22.9102 23.8754L24.4028 23.7262L24.4028 23.7262L22.9102 23.8754ZM22.8605 23.3779L24.353 23.2287L24.2038 21.7361L22.7112 21.8854L22.8605 23.3779ZM25.9352 54.1254L27.4278 53.9762L27.4278 53.9762L25.9352 54.1254ZM25.985 54.623L26.1342 56.1155L27.6268 55.9663L27.4775 54.4737L25.985 54.623ZM24.9899 54.7225L23.4974 54.8717L23.6466 56.3643L25.1392 56.215L24.9899 54.7225ZM24.9402 54.2249L26.4327 54.0757L26.4327 54.0757L24.9402 54.2249ZM21.9152 23.9749L23.4077 23.8257L23.4077 23.8257L21.9152 23.9749ZM21.8654 23.4774L21.7162 21.9849L20.2236 22.1341L20.3729 23.6267L21.8654 23.4774ZM44.0852 23.9749L45.5778 24.1242L45.5778 24.1242L44.0852 23.9749ZM44.135 23.4774L45.6275 23.6267L45.7768 22.1341L44.2842 21.9849L44.135 23.4774ZM41.0602 54.2249L39.5677 54.0757L39.5677 54.0757L41.0602 54.2249ZM41.0105 54.7225L40.8612 56.215L42.3538 56.3643L42.503 54.8717L41.0105 54.7225ZM40.0154 54.623L38.5229 54.4737L38.3736 55.9663L39.8662 56.1155L40.0154 54.623ZM40.0652 54.1254L38.5726 53.9762L38.5726 53.9762L40.0652 54.1254ZM43.0902 23.8754L44.5827 24.0247L44.5827 24.0247L43.0902 23.8754ZM43.1399 23.3779L43.2892 21.8854L41.7966 21.7361L41.6474 23.2287L43.1399 23.3779ZM33.5002 23.4252H35.0002V21.9252H33.5002V23.4252ZM33.5002 54.6752V56.1752H35.0002V54.6752H33.5002ZM32.5002 54.6752H31.0002V56.1752H32.5002V54.6752ZM32.5002 23.4252V21.9252H31.0002V23.4252H32.5002ZM25.4377 2.2627H25.1287V5.2627H25.4377V2.2627ZM40.5627 2.2627H25.4377V5.2627H40.5627V2.2627ZM40.8717 2.2627H40.5627V5.2627H40.8717V2.2627ZM42.3516 3.36827L42.2134 3.09188L39.5301 4.43351L39.6683 4.7099L42.3516 3.36827ZM45.2384 9.14187L42.3515 3.36827L39.6683 4.70991L42.5551 10.4835L45.2384 9.14187ZM61.7377 8.3127H43.8967V11.3127H61.7377V8.3127ZM62.2377 8.3127H61.7377V11.3127H62.2377V8.3127ZM63.7377 10.8127V9.8127H60.7377V10.8127H63.7377ZM61.7377 12.3127H62.2377V9.3127H61.7377V12.3127ZM43.5877 12.3127H61.7377V9.3127H43.5877V12.3127ZM22.4127 12.3127H43.5877V9.3127H22.4127V12.3127ZM4.2627 12.3127H22.4127V9.3127H4.2627V12.3127ZM3.7627 12.3127H4.2627V9.3127H3.7627V12.3127ZM2.2627 9.8127V10.8127H5.2627V9.8127H2.2627ZM4.2627 8.3127H3.7627V11.3127H4.2627V8.3127ZM22.1037 8.3127H4.2627V11.3127H22.1037V8.3127ZM23.6488 3.36827L20.762 9.14187L23.4453 10.4835L26.3321 4.70991L23.6488 3.36827ZM23.787 3.09187L23.6488 3.36827L26.3321 4.70991L26.4703 4.43352L23.787 3.09187ZM42.7787 8.3127H23.2217V11.3127H42.7787V8.3127ZM38.912 5.43352L41.437 10.4835L44.1203 9.14187L41.5953 4.09187L38.912 5.43352ZM25.7467 6.2627H40.2537V3.2627H25.7467V6.2627ZM24.5634 10.4835L27.0884 5.43352L24.4051 4.09187L21.8801 9.14187L24.5634 10.4835ZM10.3127 14.3627H9.7416V17.3627H10.3127V14.3627ZM55.6877 14.3627H10.3127V17.3627H55.6877V14.3627ZM56.2588 14.3627H55.6877V17.3627H56.2588V14.3627ZM57.6701 16.627L57.7456 16.0609L54.7719 15.6644L54.6965 16.2305L57.6701 16.627ZM51.6202 62.002L57.6701 16.627L54.6965 16.2305L48.6465 61.6055L51.6202 62.002ZM51.5623 62.4359L51.6201 62.002L48.6465 61.6055L48.5886 62.0394L51.5623 62.4359ZM49.6377 63.7377H50.0755V60.7377H49.6377V63.7377ZM16.3627 63.7377H49.6377V60.7377H16.3627V63.7377ZM15.9249 63.7377H16.3627V60.7377H15.9249V63.7377ZM14.3802 62.002L14.4381 62.4359L17.4118 62.0394L17.3539 61.6055L14.3802 62.002ZM8.33024 16.627L14.3802 62.002L17.3539 61.6055L11.3039 16.2305L8.33024 16.627ZM8.25476 16.0609L8.33024 16.627L11.3039 16.2305L11.2284 15.6644L8.25476 16.0609ZM18.2873 61.0394L12.3706 16.6644L9.39694 17.0609L15.3136 61.4359L18.2873 61.0394ZM49.1999 59.7377H16.8005V62.7377H49.1999V59.7377ZM53.6298 16.6644L47.7131 61.0394L50.6868 61.4359L56.6034 17.0609L53.6298 16.6644ZM10.8838 18.3627H55.1166V15.3627H10.8838V18.3627ZM24.4028 23.7262L24.353 23.2287L21.3679 23.5272L21.4177 24.0247L24.4028 23.7262ZM27.4278 53.9762L24.4028 23.7262L21.4177 24.0247L24.4427 54.2747L27.4278 53.9762ZM27.4775 54.4737L27.4278 53.9762L24.4427 54.2747L24.4924 54.7722L27.4775 54.4737ZM25.1392 56.215L26.1342 56.1155L25.8357 53.1304L24.8407 53.2299L25.1392 56.215ZM23.4476 54.3742L23.4974 54.8717L26.4825 54.5732L26.4327 54.0757L23.4476 54.3742ZM20.4226 24.1242L23.4476 54.3742L26.4327 54.0757L23.4077 23.8257L20.4226 24.1242ZM20.3729 23.6267L20.4226 24.1242L23.4077 23.8257L23.358 23.3282L20.3729 23.6267ZM22.7112 21.8854L21.7162 21.9849L22.0147 24.97L23.0097 24.8705L22.7112 21.8854ZM45.5778 24.1242L45.6275 23.6267L42.6424 23.3282L42.5927 23.8257L45.5778 24.1242ZM42.5528 54.3742L45.5778 24.1242L42.5927 23.8257L39.5677 54.0757L42.5528 54.3742ZM42.503 54.8717L42.5528 54.3742L39.5677 54.0757L39.5179 54.5732L42.503 54.8717ZM39.8662 56.1155L40.8612 56.215L41.1597 53.2299L40.1647 53.1304L39.8662 56.1155ZM38.5726 53.9762L38.5229 54.4737L41.508 54.7722L41.5577 54.2747L38.5726 53.9762ZM41.5976 23.7262L38.5726 53.9762L41.5577 54.2747L44.5827 24.0247L41.5976 23.7262ZM41.6474 23.2287L41.5976 23.7262L44.5827 24.0247L44.6325 23.5272L41.6474 23.2287ZM44.2842 21.9849L43.2892 21.8854L42.9907 24.8705L43.9857 24.97L44.2842 21.9849ZM35.0002 23.9252V23.4252H32.0002V23.9252H35.0002ZM35.0002 54.1752V23.9252H32.0002V54.1752H35.0002ZM35.0002 54.6752V54.1752H32.0002V54.6752H35.0002ZM32.5002 56.1752H33.5002V53.1752H32.5002V56.1752ZM31.0002 54.1752V54.6752H34.0002V54.1752H31.0002ZM31.0002 23.9252V54.1752H34.0002V23.9252H31.0002ZM31.0002 23.4252V23.9252H34.0002V23.4252H31.0002ZM33.5002 21.9252H32.5002V24.9252H33.5002V21.9252Z" fill="#EE5626"/>
</svg>
