<svg width="45" height="43" viewBox="0 0 45 43" fill="none" xmlns="http://www.w3.org/2000/svg">
<g filter="url(#filter0_d_473_4581)">
<path fill-rule="evenodd" clip-rule="evenodd" d="M9.37248 19.312C9.37248 15.9683 12.083 13.2578 15.4267 13.2578C18.7703 13.2578 21.4809 15.9683 21.4809 19.312C21.4809 21.7819 20.0019 23.9063 17.8812 24.848H18.8356C21.2769 24.848 23.1586 25.8469 24.4143 27.4782C25.6557 29.091 26.2533 31.2768 26.2533 33.6293V34.2293H25.0533V33.6293C25.0533 31.4633 24.5012 29.5585 23.4634 28.2102C22.4398 26.8805 20.9127 26.048 18.8356 26.048H12.0178C9.94069 26.048 8.41354 26.8805 7.38998 28.2102C6.35211 29.5585 5.80005 31.4633 5.80005 33.6293V34.2293H4.60005V33.6293C4.60005 31.2768 5.19766 29.091 6.43907 27.4782C7.69478 25.8469 9.5765 24.848 12.0178 24.848H12.9722C10.8515 23.9063 9.37248 21.7819 9.37248 19.312ZM15.4267 14.4578C12.7458 14.4578 10.5725 16.6311 10.5725 19.312C10.5725 21.9929 12.7458 24.1662 15.4267 24.1662C18.1076 24.1662 20.2809 21.9929 20.2809 19.312C20.2809 16.6311 18.1076 14.4578 15.4267 14.4578Z" fill="#218D87"/>
<path d="M17.8812 24.848L17.7594 24.5738L17.8812 25.148V24.848ZM24.4143 27.4782L24.1766 27.6612V27.6612L24.4143 27.4782ZM26.2533 34.2293V34.5293H26.5533V34.2293H26.2533ZM25.0533 34.2293H24.7533V34.5293H25.0533V34.2293ZM23.4634 28.2102L23.2257 28.3932L23.4634 28.2102ZM7.38998 28.2102L7.6277 28.3932H7.6277L7.38998 28.2102ZM5.80005 34.2293V34.5293H6.10005V34.2293H5.80005ZM4.60005 34.2293H4.30005V34.5293H4.60005V34.2293ZM6.43907 27.4782L6.20134 27.2952V27.2952L6.43907 27.4782ZM12.9722 24.848V25.148L13.0939 24.5738L12.9722 24.848ZM15.4267 12.9578C11.9173 12.9578 9.07247 15.8027 9.07247 19.312H9.67248C9.67248 16.134 12.2487 13.5578 15.4267 13.5578V12.9578ZM21.7809 19.312C21.7809 15.8027 18.936 12.9578 15.4267 12.9578V13.5578C18.6046 13.5578 21.1809 16.134 21.1809 19.312H21.7809ZM18.0029 25.1222C20.2281 24.1341 21.7809 21.9047 21.7809 19.312H21.1809C21.1809 21.659 19.7757 23.6785 17.7594 24.5738L18.0029 25.1222ZM18.8356 24.548H17.8812V25.148H18.8356V24.548ZM24.652 27.2952C23.3383 25.5885 21.3679 24.548 18.8356 24.548V25.148C21.1858 25.148 22.9789 26.1053 24.1766 27.6612L24.652 27.2952ZM26.5533 33.6293C26.5533 31.2303 25.9443 28.9741 24.652 27.2952L24.1766 27.6612C25.3671 29.2078 25.9533 31.3234 25.9533 33.6293H26.5533ZM26.5533 34.2293V33.6293H25.9533V34.2293H26.5533ZM25.0533 34.5293H26.2533V33.9293H25.0533V34.5293ZM24.7533 33.6293V34.2293H25.3533V33.6293H24.7533ZM23.2257 28.3932C24.2127 29.6754 24.7533 31.5099 24.7533 33.6293H25.3533C25.3533 31.4166 24.7898 29.4416 23.7011 28.0272L23.2257 28.3932ZM18.8356 26.348C20.8216 26.348 22.2601 27.1388 23.2257 28.3932L23.7011 28.0272C22.6195 26.6221 21.0037 25.748 18.8356 25.748V26.348ZM12.0178 26.348H18.8356V25.748H12.0178V26.348ZM7.6277 28.3932C8.59324 27.1388 10.0318 26.348 12.0178 26.348V25.748C9.84963 25.748 8.23384 26.6221 7.15225 28.0272L7.6277 28.3932ZM6.10005 33.6293C6.10005 31.5099 6.6407 29.6754 7.6277 28.3932L7.15225 28.0272C6.06352 29.4416 5.50005 31.4166 5.50005 33.6293H6.10005ZM6.10005 34.2293V33.6293H5.50005V34.2293H6.10005ZM4.60005 34.5293H5.80005V33.9293H4.60005V34.5293ZM4.30005 33.6293V34.2293H4.90005V33.6293H4.30005ZM6.20134 27.2952C4.90902 28.9741 4.30005 31.2303 4.30005 33.6293H4.90005C4.90005 31.3234 5.48629 29.2078 6.67679 27.6612L6.20134 27.2952ZM12.0178 24.548C9.48547 24.548 7.51509 25.5885 6.20134 27.2952L6.67679 27.6612C7.87446 26.1053 9.66753 25.148 12.0178 25.148V24.548ZM12.9722 24.548H12.0178V25.148H12.9722V24.548ZM9.07247 19.312C9.07247 21.9047 10.6253 24.1341 12.8504 25.1222L13.0939 24.5738C11.0777 23.6785 9.67248 21.659 9.67248 19.312H9.07247ZM10.8725 19.312C10.8725 16.7968 12.9115 14.7578 15.4267 14.7578V14.1578C12.5801 14.1578 10.2725 16.4654 10.2725 19.312H10.8725ZM15.4267 23.8662C12.9115 23.8662 10.8725 21.8272 10.8725 19.312H10.2725C10.2725 22.1586 12.5801 24.4662 15.4267 24.4662V23.8662ZM19.9809 19.312C19.9809 21.8272 17.9419 23.8662 15.4267 23.8662V24.4662C18.2733 24.4662 20.5809 22.1586 20.5809 19.312H19.9809ZM15.4267 14.7578C17.9419 14.7578 19.9809 16.7968 19.9809 19.312H20.5809C20.5809 16.4654 18.2733 14.1578 15.4267 14.1578V14.7578Z" fill="#218D87"/>
<path fill-rule="evenodd" clip-rule="evenodd" d="M16.6781 6.00001C16.6781 5.00589 17.484 4.2 18.4781 4.20001L38.7228 4.20017C39.7169 4.20018 40.5228 5.00607 40.5228 6.00017V16.4322C40.5228 17.4263 39.7169 18.2322 38.7228 18.2322H34.9027L28.8419 24.8314L27.8 25.9659V24.4256V18.2322H25.7092H25.1092V17.0322H25.7092H28.4H29V17.6322V22.8852L34.1971 17.2263L34.3754 17.0322H34.639H38.7228C39.0542 17.0322 39.3228 16.7635 39.3228 16.4322V6.00017C39.3228 5.66881 39.0542 5.40018 38.7228 5.40017L18.4781 5.40001C18.1468 5.40001 17.8781 5.66864 17.8781 6.00001V8.8V9.4H16.6781V8.8V6.00001Z" fill="#218D87"/>
<path d="M18.4781 4.20001L18.4781 4.50001L18.4781 4.20001ZM38.7228 4.20017L38.7228 3.90017L38.7228 4.20017ZM34.9027 18.2322V17.9322C34.8187 17.9322 34.7385 17.9674 34.6817 18.0292L34.9027 18.2322ZM28.8419 24.8314L29.0629 25.0343H29.0629L28.8419 24.8314ZM27.8 25.9659H27.5C27.5 26.0896 27.5759 26.2006 27.6911 26.2455C27.8063 26.2903 27.9373 26.2599 28.021 26.1688L27.8 25.9659ZM27.8 18.2322H28.1C28.1 18.0665 27.9657 17.9322 27.8 17.9322V18.2322ZM25.1092 18.2322H24.8092C24.8092 18.3979 24.9435 18.5322 25.1092 18.5322V18.2322ZM25.1092 17.0322V16.7322C24.9435 16.7322 24.8092 16.8665 24.8092 17.0322H25.1092ZM29 17.0322H29.3C29.3 16.8665 29.1657 16.7322 29 16.7322V17.0322ZM29 22.8852H28.7C28.7 23.0089 28.7759 23.1199 28.8911 23.1648C29.0063 23.2097 29.1373 23.1792 29.221 23.0882L29 22.8852ZM34.1971 17.2263L34.4181 17.4292L34.1971 17.2263ZM34.3754 17.0322V16.7322C34.2914 16.7322 34.2113 16.7674 34.1545 16.8292L34.3754 17.0322ZM38.7228 5.40017L38.7228 5.70017L38.7228 5.40017ZM18.4781 5.40001L18.4781 5.10001L18.4781 5.40001ZM17.8781 9.4V9.7C18.0438 9.7 18.1781 9.56569 18.1781 9.4H17.8781ZM16.6781 9.4H16.3781C16.3781 9.56569 16.5124 9.7 16.6781 9.7V9.4ZM18.4781 3.90001C17.3183 3.9 16.3781 4.8402 16.3781 6.00001H16.9781C16.9781 5.17158 17.6497 4.5 18.4781 4.50001L18.4781 3.90001ZM38.7228 3.90017L18.4781 3.90001L18.4781 4.50001L38.7228 4.50017L38.7228 3.90017ZM40.8228 6.00017C40.8228 4.84038 39.8826 3.90018 38.7228 3.90017L38.7228 4.50017C39.5512 4.50018 40.2228 5.17175 40.2228 6.00017H40.8228ZM40.8228 16.4322V6.00017H40.2228V16.4322H40.8228ZM38.7228 18.5322C39.8826 18.5322 40.8228 17.592 40.8228 16.4322H40.2228C40.2228 17.2606 39.5512 17.9322 38.7228 17.9322V18.5322ZM34.9027 18.5322H38.7228V17.9322H34.9027V18.5322ZM29.0629 25.0343L35.1236 18.4351L34.6817 18.0292L28.621 24.6285L29.0629 25.0343ZM28.021 26.1688L29.0629 25.0343L28.621 24.6285L27.579 25.763L28.021 26.1688ZM27.5 24.4256V25.9659H28.1V24.4256H27.5ZM27.5 18.2322V24.4256H28.1V18.2322H27.5ZM25.7092 18.5322H27.8V17.9322H25.7092V18.5322ZM25.1092 18.5322H25.7092V17.9322H25.1092V18.5322ZM24.8092 17.0322V18.2322H25.4092V17.0322H24.8092ZM25.7092 16.7322H25.1092V17.3322H25.7092V16.7322ZM28.4 16.7322H25.7092V17.3322H28.4V16.7322ZM29 16.7322H28.4V17.3322H29V16.7322ZM29.3 17.6322V17.0322H28.7V17.6322H29.3ZM29.3 22.8852V17.6322H28.7V22.8852H29.3ZM33.9762 17.0234L28.779 22.6823L29.221 23.0882L34.4181 17.4292L33.9762 17.0234ZM34.1545 16.8292L33.9762 17.0234L34.4181 17.4292L34.5964 17.2351L34.1545 16.8292ZM34.639 16.7322H34.3754V17.3322H34.639V16.7322ZM38.7228 16.7322H34.639V17.3322H38.7228V16.7322ZM39.0228 16.4322C39.0228 16.5979 38.8885 16.7322 38.7228 16.7322V17.3322C39.2199 17.3322 39.6228 16.9292 39.6228 16.4322H39.0228ZM39.0228 6.00017V16.4322H39.6228V6.00017H39.0228ZM38.7228 5.70017C38.8885 5.70018 39.0228 5.83449 39.0228 6.00017H39.6228C39.6228 5.50312 39.2199 5.10018 38.7228 5.10017L38.7228 5.70017ZM18.4781 5.70001L38.7228 5.70017L38.7228 5.10017L18.4781 5.10001L18.4781 5.70001ZM18.1781 6.00001C18.1781 5.83432 18.3124 5.70001 18.4781 5.70001L18.4781 5.10001C17.9811 5.10001 17.5781 5.50295 17.5781 6.00001H18.1781ZM18.1781 8.8V6.00001H17.5781V8.8H18.1781ZM18.1781 9.4V8.8H17.5781V9.4H18.1781ZM16.6781 9.7H17.8781V9.1H16.6781V9.7ZM16.3781 8.8V9.4H16.9781V8.8H16.3781ZM16.3781 6.00001V8.8H16.9781V6.00001H16.3781Z" fill="#218D87"/>
</g>
<defs>
<filter id="filter0_d_473_4581" x="-1.19995" y="0.799988" width="46.4" height="46.4" filterUnits="userSpaceOnUse" color-interpolation-filters="sRGB">
<feFlood flood-opacity="0" result="BackgroundImageFix"/>
<feColorMatrix in="SourceAlpha" type="matrix" values="0 0 0 0 0 0 0 0 0 0 0 0 0 0 0 0 0 0 127 0" result="hardAlpha"/>
<feOffset dy="4"/>
<feGaussianBlur stdDeviation="2"/>
<feComposite in2="hardAlpha" operator="out"/>
<feColorMatrix type="matrix" values="0 0 0 0 0 0 0 0 0 0 0 0 0 0 0 0 0 0 0.25 0"/>
<feBlend mode="normal" in2="BackgroundImageFix" result="effect1_dropShadow_473_4581"/>
<feBlend mode="normal" in="SourceGraphic" in2="effect1_dropShadow_473_4581" result="shape"/>
</filter>
</defs>
</svg>
