<svg width="70" height="70" viewBox="0 0 70 70" fill="none" xmlns="http://www.w3.org/2000/svg">
<path fill-rule="evenodd" clip-rule="evenodd" d="M3.875 11.2083C3.875 10.3799 4.54657 9.70833 5.375 9.70833H64.625C65.4534 9.70833 66.125 10.3799 66.125 11.2083V50.0417C66.125 50.8701 65.4534 51.5417 64.625 51.5417H33.7335L19.2928 64.5383L18.4583 65.2893V64.1667V51.5417H5.375C4.54657 51.5417 3.875 50.8701 3.875 50.0417V11.2083ZM5.375 10.7083C5.09886 10.7083 4.875 10.9322 4.875 11.2083V50.0417C4.875 50.3178 5.09886 50.5417 5.375 50.5417H18.9583H19.4583V51.0417V63.044L33.2072 50.67L33.3498 50.5417H33.5417H64.625C64.9011 50.5417 65.125 50.3178 65.125 50.0417V11.2083C65.125 10.9322 64.9011 10.7083 64.625 10.7083H5.375ZM18.4583 21.375H18.9583H51.0417H51.5417V22.375H51.0417H18.9583H18.4583V21.375ZM18.4583 30.125H18.9583H51.0417H51.5417V31.125H51.0417H18.9583H18.4583V30.125ZM18.4583 38.875H18.9583H33.5417H34.0417V39.875H33.5417H18.9583H18.4583V38.875Z" fill="#EE5626"/>
<path d="M33.7335 51.5417V50.0417C33.363 50.0417 33.0055 50.1788 32.7301 50.4267L33.7335 51.5417ZM19.2928 64.5383L20.2963 65.6532L19.2928 64.5383ZM18.4583 65.2893H16.9583C16.9583 65.8817 17.3069 66.4186 17.8481 66.6596C18.3892 66.9006 19.0215 66.8006 19.4618 66.4043L18.4583 65.2893ZM18.4583 51.5417H19.9583C19.9583 50.7132 19.2868 50.0417 18.4583 50.0417V51.5417ZM19.4583 50.5417H20.9583C20.9583 49.7132 20.2868 49.0417 19.4583 49.0417V50.5417ZM19.4583 63.044H17.9583C17.9583 63.6363 18.3069 64.1732 18.8481 64.4142C19.3892 64.6552 20.0215 64.5552 20.4618 64.1589L19.4583 63.044ZM33.2072 50.67L34.2106 51.785H34.2106L33.2072 50.67ZM33.3498 50.5417V49.0417C32.9792 49.0417 32.6218 49.1788 32.3464 49.4267L33.3498 50.5417ZM18.4583 21.375V19.875C17.6299 19.875 16.9583 20.5466 16.9583 21.375H18.4583ZM51.5417 21.375H53.0417C53.0417 20.5466 52.3701 19.875 51.5417 19.875V21.375ZM51.5417 22.375V23.875C52.3701 23.875 53.0417 23.2034 53.0417 22.375H51.5417ZM18.4583 22.375H16.9583C16.9583 23.2034 17.6299 23.875 18.4583 23.875V22.375ZM18.4583 30.125V28.625C17.6299 28.625 16.9583 29.2966 16.9583 30.125H18.4583ZM51.5417 30.125H53.0417C53.0417 29.2966 52.3701 28.625 51.5417 28.625V30.125ZM51.5417 31.125V32.625C52.3701 32.625 53.0417 31.9534 53.0417 31.125H51.5417ZM18.4583 31.125H16.9583C16.9583 31.9534 17.6299 32.625 18.4583 32.625V31.125ZM18.4583 38.875V37.375C17.6299 37.375 16.9583 38.0466 16.9583 38.875H18.4583ZM34.0417 38.875H35.5417C35.5417 38.0466 34.8701 37.375 34.0417 37.375V38.875ZM34.0417 39.875V41.375C34.8701 41.375 35.5417 40.7034 35.5417 39.875H34.0417ZM18.4583 39.875H16.9583C16.9583 40.7034 17.6299 41.375 18.4583 41.375V39.875ZM5.375 8.20833C3.71815 8.20833 2.375 9.55147 2.375 11.2083H5.375V11.2083V8.20833ZM64.625 8.20833H5.375V11.2083H64.625V8.20833ZM67.625 11.2083C67.625 9.55147 66.2819 8.20833 64.625 8.20833V11.2083H67.625ZM67.625 50.0417V11.2083H64.625V50.0417H67.625ZM64.625 53.0417C66.2819 53.0417 67.625 51.6985 67.625 50.0417H64.625V53.0417ZM33.7335 53.0417H64.625V50.0417H33.7335V53.0417ZM20.2963 65.6532L34.737 52.6566L32.7301 50.4267L18.2894 63.4234L20.2963 65.6532ZM19.4618 66.4043L20.2963 65.6532L18.2894 63.4234L17.4549 64.1744L19.4618 66.4043ZM16.9583 64.1667V65.2893H19.9583V64.1667H16.9583ZM16.9583 51.5417V64.1667H19.9583V51.5417H16.9583ZM5.375 53.0417H18.4583V50.0417H5.375V53.0417ZM2.375 50.0417C2.375 51.6985 3.71814 53.0417 5.375 53.0417V50.0417H5.375H2.375ZM2.375 11.2083V50.0417H5.375V11.2083H2.375ZM6.375 11.2083C6.375 11.7606 5.92728 12.2083 5.375 12.2083V9.20833C4.27043 9.20833 3.375 10.1038 3.375 11.2083H6.375ZM6.375 50.0417V11.2083H3.375V50.0417H6.375ZM5.375 49.0417C5.92729 49.0417 6.375 49.4894 6.375 50.0417H3.375C3.375 51.1462 4.27043 52.0417 5.375 52.0417V49.0417ZM18.9583 49.0417H5.375V52.0417H18.9583V49.0417ZM19.4583 49.0417H18.9583V52.0417H19.4583V49.0417ZM20.9583 51.0417V50.5417H17.9583V51.0417H20.9583ZM20.9583 63.044V51.0417H17.9583V63.044H20.9583ZM32.2037 49.5551L18.4549 61.929L20.4618 64.1589L34.2106 51.785L32.2037 49.5551ZM32.3464 49.4267L32.2037 49.5551L34.2106 51.785L34.3532 51.6566L32.3464 49.4267ZM33.5417 49.0417H33.3498V52.0417H33.5417V49.0417ZM64.625 49.0417H33.5417V52.0417H64.625V49.0417ZM63.625 50.0417C63.625 49.4894 64.0727 49.0417 64.625 49.0417V52.0417C65.7296 52.0417 66.625 51.1462 66.625 50.0417H63.625ZM63.625 11.2083V50.0417H66.625V11.2083H63.625ZM64.625 12.2083C64.0727 12.2083 63.625 11.7606 63.625 11.2083H66.625C66.625 10.1038 65.7296 9.20833 64.625 9.20833V12.2083ZM5.375 12.2083H64.625V9.20833H5.375V12.2083ZM18.9583 19.875H18.4583V22.875H18.9583V19.875ZM51.0417 19.875H18.9583V22.875H51.0417V19.875ZM51.5417 19.875H51.0417V22.875H51.5417V19.875ZM53.0417 22.375V21.375H50.0417V22.375H53.0417ZM51.0417 23.875H51.5417V20.875H51.0417V23.875ZM18.9583 23.875H51.0417V20.875H18.9583V23.875ZM18.4583 23.875H18.9583V20.875H18.4583V23.875ZM16.9583 21.375V22.375H19.9583V21.375H16.9583ZM18.9583 28.625H18.4583V31.625H18.9583V28.625ZM51.0417 28.625H18.9583V31.625H51.0417V28.625ZM51.5417 28.625H51.0417V31.625H51.5417V28.625ZM53.0417 31.125V30.125H50.0417V31.125H53.0417ZM51.0417 32.625H51.5417V29.625H51.0417V32.625ZM18.9583 32.625H51.0417V29.625H18.9583V32.625ZM18.4583 32.625H18.9583V29.625H18.4583V32.625ZM16.9583 30.125V31.125H19.9583V30.125H16.9583ZM18.9583 37.375H18.4583V40.375H18.9583V37.375ZM33.5417 37.375H18.9583V40.375H33.5417V37.375ZM34.0417 37.375H33.5417V40.375H34.0417V37.375ZM35.5417 39.875V38.875H32.5417V39.875H35.5417ZM33.5417 41.375H34.0417V38.375H33.5417V41.375ZM18.9583 41.375H33.5417V38.375H18.9583V41.375ZM18.4583 41.375H18.9583V38.375H18.4583V41.375ZM16.9583 38.875V39.875H19.9583V38.875H16.9583Z" fill="#EE5626"/>
</svg>
