<svg width="39" height="39" viewBox="0 0 39 39" fill="none" xmlns="http://www.w3.org/2000/svg">
<path fill-rule="evenodd" clip-rule="evenodd" d="M6.57247 18.512C6.57247 15.1684 9.28303 12.4578 12.6267 12.4578C15.9703 12.4578 18.6809 15.1684 18.6809 18.512C18.6809 20.9819 17.2019 23.1063 15.0812 24.048H16.0356C18.4769 24.048 20.3586 25.0469 21.6143 26.6782C22.8557 28.291 23.4533 30.4768 23.4533 32.8293V33.4293H22.2533V32.8293C22.2533 30.6633 21.7012 28.7585 20.6634 27.4102C19.6398 26.0805 18.1127 25.248 16.0356 25.248H9.2178C7.14069 25.248 5.61354 26.0805 4.58998 27.4102C3.55211 28.7585 3.00005 30.6633 3.00005 32.8293V33.4293H1.80005V32.8293C1.80005 30.4768 2.39766 28.291 3.63907 26.6782C4.89478 25.0469 6.7765 24.048 9.2178 24.048H10.1722C8.05149 23.1063 6.57247 20.9819 6.57247 18.512ZM12.6267 13.6578C9.94578 13.6578 7.77248 15.8311 7.77248 18.512C7.77248 21.1929 9.94578 23.3662 12.6267 23.3662C15.3076 23.3662 17.4809 21.1929 17.4809 18.512C17.4809 15.8311 15.3076 13.6578 12.6267 13.6578Z" fill="#218D87"/>
<path d="M15.0812 24.048L14.7768 23.3625L15.0812 24.798V24.048ZM21.6143 26.6782L21.02 27.1357V27.1357L21.6143 26.6782ZM23.4533 33.4293V34.1793H24.2033V33.4293H23.4533ZM22.2533 33.4293H21.5033V34.1793H22.2533V33.4293ZM20.6634 27.4102L20.0691 27.8677L20.6634 27.4102ZM4.58998 27.4102L5.18429 27.8677L4.58998 27.4102ZM3.00005 33.4293V34.1793H3.75005V33.4293H3.00005ZM1.80005 33.4293H1.05005V34.1793H1.80005V33.4293ZM3.63907 26.6782L3.04475 26.2208L3.04475 26.2208L3.63907 26.6782ZM10.1722 24.048V24.798L10.4765 23.3625L10.1722 24.048ZM12.6267 11.7078C8.86882 11.7078 5.82247 14.7541 5.82247 18.512H7.32247C7.32247 15.5826 9.69725 13.2078 12.6267 13.2078V11.7078ZM19.4309 18.512C19.4309 14.7541 16.3845 11.7078 12.6267 11.7078V13.2078C15.5561 13.2078 17.9309 15.5826 17.9309 18.512H19.4309ZM15.3856 24.7334C17.7673 23.6758 19.4309 21.289 19.4309 18.512H17.9309C17.9309 20.6747 16.6364 22.5368 14.7768 23.3625L15.3856 24.7334ZM16.0356 23.298H15.0812V24.798H16.0356V23.298ZM22.2086 26.2208C20.8078 24.4009 18.7044 23.298 16.0356 23.298V24.798C18.2493 24.798 19.9094 25.6929 21.02 27.1357L22.2086 26.2208ZM24.2033 32.8293C24.2033 30.3604 23.5773 27.9988 22.2086 26.2208L21.02 27.1357C22.1341 28.5831 22.7033 30.5933 22.7033 32.8293H24.2033ZM24.2033 33.4293V32.8293H22.7033V33.4293H24.2033ZM22.2533 34.1793H23.4533V32.6793H22.2533V34.1793ZM21.5033 32.8293V33.4293H23.0033V32.8293H21.5033ZM20.0691 27.8677C20.9798 29.0508 21.5033 30.7799 21.5033 32.8293H23.0033C23.0033 30.5466 22.4227 28.4662 21.2577 26.9527L20.0691 27.8677ZM16.0356 25.998C17.885 25.998 19.1906 26.7264 20.0691 27.8677L21.2577 26.9527C20.0891 25.4345 18.3403 24.498 16.0356 24.498V25.998ZM9.2178 25.998H16.0356V24.498H9.2178V25.998ZM5.18429 27.8677C6.0628 26.7264 7.36836 25.998 9.2178 25.998V24.498C6.91303 24.498 5.16428 25.4345 3.99566 26.9527L5.18429 27.8677ZM3.75005 32.8293C3.75005 30.7799 4.27359 29.0508 5.18429 27.8677L3.99566 26.9527C2.83063 28.4662 2.25005 30.5466 2.25005 32.8293H3.75005ZM3.75005 33.4293V32.8293H2.25005V33.4293H3.75005ZM1.80005 34.1793H3.00005V32.6793H1.80005V34.1793ZM1.05005 32.8293V33.4293H2.55005V32.8293H1.05005ZM3.04475 26.2208C1.67607 27.9988 1.05005 30.3604 1.05005 32.8293H2.55005C2.55005 30.5933 3.11924 28.5831 4.23339 27.1357L3.04475 26.2208ZM9.2178 23.298C6.54892 23.298 4.44557 24.4009 3.04475 26.2208L4.23339 27.1357C5.34398 25.6929 7.00408 24.798 9.2178 24.798V23.298ZM10.1722 23.298H9.2178V24.798H10.1722V23.298ZM5.82247 18.512C5.82247 21.289 7.48601 23.6758 9.86779 24.7334L10.4765 23.3625C8.61696 22.5368 7.32247 20.6747 7.32247 18.512H5.82247ZM8.52248 18.512C8.52248 16.2453 10.36 14.4078 12.6267 14.4078V12.9078C9.53156 12.9078 7.02248 15.4169 7.02248 18.512H8.52248ZM12.6267 22.6162C10.36 22.6162 8.52248 20.7787 8.52248 18.512H7.02248C7.02248 21.6071 9.53156 24.1162 12.6267 24.1162V22.6162ZM16.7309 18.512C16.7309 20.7787 14.8934 22.6162 12.6267 22.6162V24.1162C15.7218 24.1162 18.2309 21.6071 18.2309 18.512H16.7309ZM12.6267 14.4078C14.8934 14.4078 16.7309 16.2453 16.7309 18.512H18.2309C18.2309 15.4169 15.7218 12.9078 12.6267 12.9078V14.4078Z" fill="#218D87"/>
<path fill-rule="evenodd" clip-rule="evenodd" d="M13.8781 5.20001C13.8781 4.20589 14.6839 3.4 15.6781 3.40001L35.9227 3.40017C36.9169 3.40018 37.7227 4.20607 37.7227 5.20017V15.6322C37.7227 16.6263 36.9168 17.4322 35.9227 17.4322H32.1026L26.0418 24.0314L24.9999 25.1659V23.6256V17.4322H22.9091H22.3091V16.2322H22.9091H25.5999H26.1999V16.8322V22.0852L31.3971 16.4263L31.5754 16.2322H31.839H35.9227C36.2541 16.2322 36.5227 15.9635 36.5227 15.6322V5.20017C36.5227 4.86881 36.2541 4.60018 35.9227 4.60017L15.6781 4.60001C15.3467 4.60001 15.0781 4.86864 15.0781 5.20001V8V8.6H13.8781V8V5.20001Z" fill="#218D87"/>
<path d="M15.6781 3.40001L15.6781 4.15001L15.6781 3.40001ZM35.9227 3.40017L35.9228 2.65017L35.9227 3.40017ZM32.1026 17.4322V16.6822C31.8926 16.6822 31.6922 16.7702 31.5502 16.9249L32.1026 17.4322ZM26.0418 24.0314L26.5942 24.5387H26.5942L26.0418 24.0314ZM24.9999 25.1659H24.2499C24.2499 25.4751 24.4396 25.7526 24.7277 25.8648C25.0158 25.977 25.3432 25.9009 25.5523 25.6732L24.9999 25.1659ZM24.9999 17.4322H25.7499C25.7499 17.018 25.4141 16.6822 24.9999 16.6822V17.4322ZM22.3091 17.4322H21.5591C21.5591 17.8464 21.8949 18.1822 22.3091 18.1822V17.4322ZM22.3091 16.2322V15.4822C21.8949 15.4822 21.5591 15.818 21.5591 16.2322H22.3091ZM26.1999 16.2322H26.9499C26.9499 15.818 26.6141 15.4822 26.1999 15.4822V16.2322ZM26.1999 22.0852H25.4499C25.4499 22.3944 25.6396 22.6719 25.9277 22.7841C26.2158 22.8963 26.5432 22.8202 26.7523 22.5925L26.1999 22.0852ZM31.3971 16.4263L31.9495 16.9336L31.3971 16.4263ZM31.5754 16.2322V15.4822C31.3654 15.4822 31.165 15.5702 31.023 15.7249L31.5754 16.2322ZM35.9227 4.60017L35.9227 5.35017L35.9227 4.60017ZM15.6781 4.60001L15.6781 3.85001L15.6781 4.60001ZM15.0781 8.6V9.35C15.4923 9.35 15.8281 9.01421 15.8281 8.6H15.0781ZM13.8781 8.6H13.1281C13.1281 9.01421 13.4638 9.35 13.8781 9.35V8.6ZM15.6781 2.65001C14.2697 2.65 13.1281 3.79167 13.1281 5.20001H14.6281C14.6281 4.62011 15.0982 4.15 15.6781 4.15001L15.6781 2.65001ZM35.9228 2.65017L15.6781 2.65001L15.6781 4.15001L35.9227 4.15017L35.9228 2.65017ZM38.4727 5.20017C38.4727 3.79185 37.3311 2.65019 35.9228 2.65017L35.9227 4.15017C36.5026 4.15018 36.9727 4.62028 36.9727 5.20017H38.4727ZM38.4727 15.6322V5.20017H36.9727V15.6322H38.4727ZM35.9227 18.1822C37.3311 18.1822 38.4727 17.0405 38.4727 15.6322H36.9727C36.9727 16.2121 36.5026 16.6822 35.9227 16.6822V18.1822ZM32.1026 18.1822H35.9227V16.6822H32.1026V18.1822ZM26.5942 24.5387L32.655 17.9395L31.5502 16.9249L25.4895 23.5241L26.5942 24.5387ZM25.5523 25.6732L26.5942 24.5387L25.4895 23.5241L24.4475 24.6586L25.5523 25.6732ZM24.2499 23.6256V25.1659H25.7499V23.6256H24.2499ZM24.2499 17.4322V23.6256H25.7499V17.4322H24.2499ZM22.9091 18.1822H24.9999V16.6822H22.9091V18.1822ZM22.3091 18.1822H22.9091V16.6822H22.3091V18.1822ZM21.5591 16.2322V17.4322H23.0591V16.2322H21.5591ZM22.9091 15.4822H22.3091V16.9822H22.9091V15.4822ZM25.5999 15.4822H22.9091V16.9822H25.5999V15.4822ZM26.1999 15.4822H25.5999V16.9822H26.1999V15.4822ZM26.9499 16.8322V16.2322H25.4499V16.8322H26.9499ZM26.9499 22.0852V16.8322H25.4499V22.0852H26.9499ZM30.8447 15.919L25.6475 21.5779L26.7523 22.5925L31.9495 16.9336L30.8447 15.919ZM31.023 15.7249L30.8447 15.919L31.9495 16.9336L32.1278 16.7395L31.023 15.7249ZM31.839 15.4822H31.5754V16.9822H31.839V15.4822ZM35.9227 15.4822H31.839V16.9822H35.9227V15.4822ZM35.7727 15.6322C35.7727 15.5493 35.8399 15.4822 35.9227 15.4822V16.9822C36.6683 16.9822 37.2727 16.3777 37.2727 15.6322H35.7727ZM35.7727 5.20017V15.6322H37.2727V5.20017H35.7727ZM35.9227 5.35017C35.8399 5.35017 35.7727 5.28302 35.7727 5.20017H37.2727C37.2727 4.45459 36.6683 3.85018 35.9227 3.85017L35.9227 5.35017ZM15.6781 5.35001L35.9227 5.35017L35.9227 3.85017L15.6781 3.85001L15.6781 5.35001ZM15.8281 5.20001C15.8281 5.28285 15.7609 5.35001 15.6781 5.35001L15.6781 3.85001C14.9325 3.85 14.3281 4.45442 14.3281 5.20001H15.8281ZM15.8281 8V5.20001H14.3281V8H15.8281ZM15.8281 8.6V8H14.3281V8.6H15.8281ZM13.8781 9.35H15.0781V7.85H13.8781V9.35ZM13.1281 8V8.6H14.6281V8H13.1281ZM13.1281 5.20001V8H14.6281V5.20001H13.1281Z" fill="#218D87"/>
</svg>
