<svg width="20" height="20" viewBox="0 0 20 20" fill="none" xmlns="http://www.w3.org/2000/svg">
<path fill-rule="evenodd" clip-rule="evenodd" d="M0.75 10C0.75 4.89137 4.89137 0.75 10 0.75C15.1086 0.75 19.25 4.89137 19.25 10C19.25 15.1086 15.1086 19.25 10 19.25C4.89137 19.25 0.75 15.1086 0.75 10ZM7.43689 6.72978L7.08333 6.37623L6.37623 7.08333L6.72978 7.43689L9.29289 10L6.72978 12.5631L6.37623 12.9167L7.08333 13.6238L7.43689 13.2702L10 10.7071L12.5631 13.2702L12.9167 13.6238L13.6238 12.9167L13.2702 12.5631L10.7071 10L13.2702 7.43689L13.6238 7.08333L12.9167 6.37623L12.5631 6.72978L10 9.29289L7.43689 6.72978Z" fill="#EAEAEA"/>
<path fill-rule="evenodd" clip-rule="evenodd" d="M10 1.75C5.44365 1.75 1.75 5.44365 1.75 10C1.75 14.5563 5.44365 18.25 10 18.25C14.5563 18.25 18.25 14.5563 18.25 10C18.25 5.44365 14.5563 1.75 10 1.75ZM0.75 10C0.75 4.89137 4.89137 0.75 10 0.75C15.1086 0.75 19.25 4.89137 19.25 10C19.25 15.1086 15.1086 19.25 10 19.25C4.89137 19.25 0.75 15.1086 0.75 10ZM7.08333 6.37623L7.43689 6.72978L10 9.29289L12.5631 6.72978L12.9167 6.37623L13.6238 7.08333L13.2702 7.43689L10.7071 10L13.2702 12.5631L13.6238 12.9167L12.9167 13.6238L12.5631 13.2702L10 10.7071L7.43689 13.2702L7.08333 13.6238L6.37623 12.9167L6.72978 12.5631L9.29289 10L6.72978 7.43689L6.37623 7.08333L7.08333 6.37623Z" fill="#43ACA7"/>
<path d="M7.43689 6.72978L7.61366 6.553H7.61366L7.43689 6.72978ZM7.08333 6.37623L7.26011 6.19945C7.16248 6.10182 7.00419 6.10182 6.90656 6.19945L7.08333 6.37623ZM10 9.29289L9.82322 9.46967C9.92085 9.5673 10.0791 9.5673 10.1768 9.46967L10 9.29289ZM12.5631 6.72978L12.7399 6.90656V6.90656L12.5631 6.72978ZM12.9167 6.37623L13.0934 6.19945C13.0466 6.15257 12.983 6.12623 12.9167 6.12623C12.8504 6.12623 12.7868 6.15257 12.7399 6.19945L12.9167 6.37623ZM13.6238 7.08333L13.8006 7.26011C13.8474 7.21323 13.8738 7.14964 13.8738 7.08333C13.8738 7.01703 13.8474 6.95344 13.8006 6.90656L13.6238 7.08333ZM10.7071 10L10.5303 9.82322C10.4327 9.92085 10.4327 10.0791 10.5303 10.1768L10.7071 10ZM13.2702 12.5631L13.0934 12.7399L13.2702 12.5631ZM13.6238 12.9167L13.8006 13.0934C13.8474 13.0466 13.8738 12.983 13.8738 12.9167C13.8738 12.8504 13.8474 12.7868 13.8006 12.7399L13.6238 12.9167ZM12.9167 13.6238L12.7399 13.8006C12.7868 13.8474 12.8504 13.8738 12.9167 13.8738C12.983 13.8738 13.0466 13.8474 13.0934 13.8006L12.9167 13.6238ZM12.5631 13.2702L12.7399 13.0934L12.5631 13.2702ZM10 10.7071L10.1768 10.5303C10.0791 10.4327 9.92085 10.4327 9.82322 10.5303L10 10.7071ZM7.08333 13.6238L6.90656 13.8006C6.95344 13.8474 7.01703 13.8738 7.08333 13.8738C7.14964 13.8738 7.21323 13.8474 7.26011 13.8006L7.08333 13.6238ZM6.37623 12.9167L6.19945 12.7399C6.15257 12.7868 6.12623 12.8504 6.12623 12.9167C6.12623 12.983 6.15257 13.0466 6.19945 13.0934L6.37623 12.9167ZM6.72978 12.5631L6.90656 12.7399H6.90656L6.72978 12.5631ZM9.29289 10L9.46967 10.1768C9.5673 10.0791 9.5673 9.92085 9.46967 9.82322L9.29289 10ZM6.72978 7.43689L6.553 7.61366V7.61366L6.72978 7.43689ZM6.37623 7.08333L6.19945 6.90656C6.10182 7.00419 6.10182 7.16248 6.19945 7.26011L6.37623 7.08333ZM2 10C2 5.58172 5.58172 2 10 2V1.5C5.30558 1.5 1.5 5.30558 1.5 10H2ZM10 18C5.58172 18 2 14.4183 2 10H1.5C1.5 14.6944 5.30558 18.5 10 18.5V18ZM18 10C18 14.4183 14.4183 18 10 18V18.5C14.6944 18.5 18.5 14.6944 18.5 10H18ZM10 2C14.4183 2 18 5.58172 18 10H18.5C18.5 5.30558 14.6944 1.5 10 1.5V2ZM10 0.5C4.75329 0.5 0.5 4.75329 0.5 10H1C1 5.02944 5.02944 1 10 1V0.5ZM19.5 10C19.5 4.75329 15.2467 0.5 10 0.5V1C14.9706 1 19 5.02944 19 10H19.5ZM10 19.5C15.2467 19.5 19.5 15.2467 19.5 10H19C19 14.9706 14.9706 19 10 19V19.5ZM0.5 10C0.5 15.2467 4.75329 19.5 10 19.5V19C5.02944 19 1 14.9706 1 10H0.5ZM7.61366 6.553L7.26011 6.19945L6.90656 6.553L7.26011 6.90656L7.61366 6.553ZM10.1768 9.11612L7.61366 6.553L7.26011 6.90656L9.82322 9.46967L10.1768 9.11612ZM12.3863 6.553L9.82322 9.11612L10.1768 9.46967L12.7399 6.90656L12.3863 6.553ZM12.7399 6.19945L12.3863 6.553L12.7399 6.90656L13.0934 6.553L12.7399 6.19945ZM13.8006 6.90656L13.0934 6.19945L12.7399 6.553L13.447 7.26011L13.8006 6.90656ZM13.447 7.61366L13.8006 7.26011L13.447 6.90656L13.0934 7.26011L13.447 7.61366ZM10.8839 10.1768L13.447 7.61366L13.0934 7.26011L10.5303 9.82322L10.8839 10.1768ZM13.447 12.3863L10.8839 9.82322L10.5303 10.1768L13.0934 12.7399L13.447 12.3863ZM13.8006 12.7399L13.447 12.3863L13.0934 12.7399L13.447 13.0934L13.8006 12.7399ZM13.0934 13.8006L13.8006 13.0934L13.447 12.7399L12.7399 13.447L13.0934 13.8006ZM12.3863 13.447L12.7399 13.8006L13.0934 13.447L12.7399 13.0934L12.3863 13.447ZM9.82322 10.8839L12.3863 13.447L12.7399 13.0934L10.1768 10.5303L9.82322 10.8839ZM7.61366 13.447L10.1768 10.8839L9.82322 10.5303L7.26011 13.0934L7.61366 13.447ZM7.26011 13.8006L7.61366 13.447L7.26011 13.0934L6.90656 13.447L7.26011 13.8006ZM6.19945 13.0934L6.90656 13.8006L7.26011 13.447L6.553 12.7399L6.19945 13.0934ZM6.553 12.3863L6.19945 12.7399L6.553 13.0934L6.90656 12.7399L6.553 12.3863ZM9.11612 9.82322L6.553 12.3863L6.90656 12.7399L9.46967 10.1768L9.11612 9.82322ZM6.553 7.61366L9.11612 10.1768L9.46967 9.82322L6.90656 7.26011L6.553 7.61366ZM6.19945 7.26011L6.553 7.61366L6.90656 7.26011L6.553 6.90656L6.19945 7.26011ZM6.90656 6.19945L6.19945 6.90656L6.553 7.26011L7.26011 6.553L6.90656 6.19945Z" fill="#43ACA7"/>
</svg>
