<svg width="24" height="24" viewBox="0 0 24 24" fill="none" xmlns="http://www.w3.org/2000/svg">
<path d="M12 1.99899C17.524 1.99899 22.002 6.47699 22.002 12.001C22.002 17.524 17.524 22.002 12 22.002C6.47605 22.002 1.99805 17.524 1.99805 12.001C1.99805 6.47699 6.47605 1.99899 12 1.99899ZM12 3.49899C10.8759 3.4868 9.76041 3.69769 8.71827 4.11946C7.67612 4.54124 6.72798 5.16551 5.92871 5.95616C5.12944 6.74681 4.49492 7.68813 4.06187 8.72563C3.62882 9.76314 3.40584 10.8762 3.40584 12.0005C3.40584 13.1248 3.62882 14.2378 4.06187 15.2754C4.49492 16.3129 5.12944 17.2542 5.92871 18.0448C6.72798 18.8355 7.67612 19.4597 8.71827 19.8815C9.76041 20.3033 10.8759 20.5142 12 20.502C14.2321 20.4678 16.3611 19.5571 17.9274 17.9665C19.4937 16.376 20.3717 14.2333 20.3717 12.001C20.3717 9.76871 19.4937 7.62597 17.9274 6.03545C16.3611 4.44493 14.2321 3.53323 12 3.49899ZM11.996 5.99899C13.5868 5.99899 15.1124 6.63092 16.2373 7.75577C17.3621 8.88061 17.994 10.4062 17.994 11.997C17.994 13.5878 17.3621 15.1134 16.2373 16.2382C15.1124 17.3631 13.5868 17.995 11.996 17.995C10.4053 17.995 8.87966 17.3631 7.75482 16.2382C6.62998 15.1134 5.99805 13.5878 5.99805 11.997C5.99805 10.4062 6.62998 8.88061 7.75482 7.75577C8.87966 6.63092 10.4053 5.99899 11.996 5.99899Z" fill="#218D87"/>
</svg>
