<svg width="16" height="16" viewBox="0 0 16 16" fill="none" xmlns="http://www.w3.org/2000/svg">
<g id="sync at right">
<path id="&#226;&#151;&#142; STROKED" fill-rule="evenodd" clip-rule="evenodd" d="M13.1673 1.83301V2.33301V4.45208L12.3695 3.6476L12.3656 3.64368L12.3656 3.6437C11.2663 2.55944 9.7114 1.83301 8.00065 1.83301C4.5949 1.83301 1.83398 4.59392 1.83398 7.99967C1.83398 11.321 4.63016 14.1663 8.00065 14.1663C11.1613 14.1663 13.766 11.7889 14.1251 8.72454L14.1833 8.22794L13.1901 8.11154L13.1319 8.60814C12.8311 11.1746 10.6481 13.1663 8.00065 13.1663C5.18748 13.1663 2.83398 10.7737 2.83398 7.99967C2.83398 5.1462 5.14718 2.83301 8.00065 2.83301C9.42559 2.83301 10.7332 3.43908 11.6615 4.35376L12.4673 5.16634H10.334H9.83398V6.16634H10.334H13.6673H14.1673V5.66634V2.33301V1.83301H13.1673Z" fill="#C5C5C5"/>
</g>
</svg>
