<svg width="24" height="24" viewBox="0 0 24 24" fill="none" xmlns="http://www.w3.org/2000/svg">
<path fill-rule="evenodd" clip-rule="evenodd" d="M14.5001 2C10.3579 2 7.00008 5.35786 7.00008 9.5C7.00008 11.5712 7.83899 13.4455 9.19677 14.8033C10.5546 16.1611 12.4289 17 14.5001 17C18.6422 17 22.0001 13.6421 22.0001 9.5C22.0001 5.35786 18.6422 2 14.5001 2ZM6.00008 9.5C6.00008 4.80558 9.80565 1 14.5001 1C19.1945 1 23.0001 4.80558 23.0001 9.5C23.0001 14.1944 19.1945 18 14.5001 18C12.333 18 10.3546 17.1884 8.85357 15.8536L7.20718 17.5L7.45718 17.75L7.10363 18.1035L3.10363 22.1035L2.75008 22.4571L2.39652 22.1035L1.89652 21.6035L1.54297 21.25L1.89652 20.8964L5.89652 16.8964L6.25008 16.5429L6.50008 16.7929L8.14646 15.1465C6.81163 13.6455 6.00008 11.6671 6.00008 9.5Z" fill="#DBDBDB"/>
<path d="M9.19677 14.8033L9.55033 14.4497L9.19677 14.8033ZM8.85357 15.8536L9.18583 15.48L8.83346 15.1666L8.50002 15.5001L8.85357 15.8536ZM7.20718 17.5L6.85363 17.1464L6.50008 17.5L6.85363 17.8535L7.20718 17.5ZM7.45718 17.75L7.81074 18.1035L8.16429 17.75L7.81074 17.3964L7.45718 17.75ZM7.10363 18.1035L7.45718 18.4571L7.10363 18.1035ZM3.10363 22.1035L2.75008 21.75H2.75008L3.10363 22.1035ZM2.75008 22.4571L2.39652 22.8107L2.75008 23.1642L3.10363 22.8107L2.75008 22.4571ZM2.39652 22.1035L2.75008 21.75H2.75008L2.39652 22.1035ZM1.89652 21.6035L1.54297 21.9571H1.54297L1.89652 21.6035ZM1.54297 21.25L1.18942 20.8964L0.835862 21.25L1.18942 21.6035L1.54297 21.25ZM1.89652 20.8964L1.54297 20.5429H1.54297L1.89652 20.8964ZM5.89652 16.8964L5.54297 16.5429H5.54297L5.89652 16.8964ZM6.25008 16.5429L6.60363 16.1893L6.25008 15.8358L5.89652 16.1893L6.25008 16.5429ZM6.50008 16.7929L6.14652 17.1464L6.50008 17.5L6.85363 17.1464L6.50008 16.7929ZM8.14646 15.1465L8.50002 15.5001L8.83346 15.1666L8.5201 14.8142L8.14646 15.1465ZM7.50008 9.5C7.50008 5.63401 10.6341 2.5 14.5001 2.5V1.5C10.0818 1.5 6.50008 5.08172 6.50008 9.5H7.50008ZM9.55033 14.4497C8.2825 13.1819 7.50008 11.4333 7.50008 9.5H6.50008C6.50008 11.7091 7.39549 13.7091 8.84322 15.1569L9.55033 14.4497ZM14.5001 16.5C12.5668 16.5 10.8182 15.7176 9.55033 14.4497L8.84322 15.1569C10.291 16.6046 12.291 17.5 14.5001 17.5V16.5ZM21.5001 9.5C21.5001 13.366 18.3661 16.5 14.5001 16.5V17.5C18.9184 17.5 22.5001 13.9183 22.5001 9.5H21.5001ZM14.5001 2.5C18.3661 2.5 21.5001 5.63401 21.5001 9.5H22.5001C22.5001 5.08172 18.9184 1.5 14.5001 1.5V2.5ZM14.5001 0.5C9.52951 0.5 5.50008 4.52944 5.50008 9.5H6.50008C6.50008 5.08172 10.0818 1.5 14.5001 1.5V0.5ZM23.5001 9.5C23.5001 4.52944 19.4706 0.5 14.5001 0.5V1.5C18.9184 1.5 22.5001 5.08172 22.5001 9.5H23.5001ZM14.5001 18.5C19.4706 18.5 23.5001 14.4706 23.5001 9.5H22.5001C22.5001 13.9183 18.9184 17.5 14.5001 17.5V18.5ZM8.52131 16.2272C10.1103 17.6403 12.2058 18.5 14.5001 18.5V17.5C12.4601 17.5 10.5989 16.7366 9.18583 15.48L8.52131 16.2272ZM7.56074 17.8535L9.20712 16.2072L8.50002 15.5001L6.85363 17.1464L7.56074 17.8535ZM7.81074 17.3964L7.56074 17.1464L6.85363 17.8535L7.10363 18.1035L7.81074 17.3964ZM7.45718 18.4571L7.81074 18.1035L7.10363 17.3964L6.75008 17.75L7.45718 18.4571ZM3.45718 22.4571L7.45718 18.4571L6.75008 17.75L2.75008 21.75L3.45718 22.4571ZM3.10363 22.8107L3.45718 22.4571L2.75008 21.75L2.39652 22.1035L3.10363 22.8107ZM2.04297 22.4571L2.39652 22.8107L3.10363 22.1035L2.75008 21.75L2.04297 22.4571ZM1.54297 21.9571L2.04297 22.4571L2.75008 21.75L2.25008 21.25L1.54297 21.9571ZM1.18942 21.6035L1.54297 21.9571L2.25008 21.25L1.89652 20.8964L1.18942 21.6035ZM1.54297 20.5429L1.18942 20.8964L1.89652 21.6035L2.25008 21.25L1.54297 20.5429ZM5.54297 16.5429L1.54297 20.5429L2.25008 21.25L6.25008 17.25L5.54297 16.5429ZM5.89652 16.1893L5.54297 16.5429L6.25008 17.25L6.60363 16.8964L5.89652 16.1893ZM6.85363 16.4393L6.60363 16.1893L5.89652 16.8964L6.14652 17.1464L6.85363 16.4393ZM7.79291 14.7929L6.14652 16.4393L6.85363 17.1464L8.50002 15.5001L7.79291 14.7929ZM5.50008 9.5C5.50008 11.7943 6.35977 13.8898 7.77283 15.4788L8.5201 14.8142C7.2635 13.4012 6.50008 11.5399 6.50008 9.5H5.50008Z" fill="#DBDBDB"/>
</svg>
