<svg width="24" height="24" viewBox="0 0 24 24" fill="none" xmlns="http://www.w3.org/2000/svg">
<path fill-rule="evenodd" clip-rule="evenodd" d="M9.70743 5.0002L9.35387 5.35375L3.70743 11.0002H21.5003H22.0003V12.0002H21.5003H3.70743L9.35387 17.6466L9.70743 18.0002L9.00032 18.7073L8.64677 18.3538L2.14677 11.8538L1.79321 11.5002L2.14677 11.1466L8.64677 4.64664L9.00032 4.29309L9.70743 5.0002Z" fill="#C5C5C5"/>
<path d="M9.35387 5.35375L9.70743 5.7073L9.35387 5.35375ZM9.70743 5.0002L10.061 5.35375C10.2562 5.15849 10.2562 4.84191 10.061 4.64664L9.70743 5.0002ZM3.70743 11.0002L3.35387 10.6466C3.21087 10.7896 3.1681 11.0047 3.24549 11.1915C3.32288 11.3784 3.5052 11.5002 3.70743 11.5002V11.0002ZM22.0003 11.0002H22.5003C22.5003 10.7241 22.2765 10.5002 22.0003 10.5002V11.0002ZM22.0003 12.0002V12.5002C22.2765 12.5002 22.5003 12.2763 22.5003 12.0002H22.0003ZM3.70743 12.0002V11.5002C3.5052 11.5002 3.32288 11.622 3.24549 11.8089C3.1681 11.9957 3.21087 12.2108 3.35387 12.3538L3.70743 12.0002ZM9.35387 17.6466L9.70743 17.2931L9.35387 17.6466ZM9.70743 18.0002L10.061 18.3538C10.2562 18.1585 10.2562 17.8419 10.061 17.6466L9.70743 18.0002ZM9.00032 18.7073L8.64677 19.0609C8.84203 19.2561 9.15861 19.2561 9.35387 19.0609L9.00032 18.7073ZM8.64677 18.3538L8.29321 18.7073H8.29321L8.64677 18.3538ZM2.14677 11.8538L2.50032 11.5002H2.50032L2.14677 11.8538ZM1.79321 11.5002L1.43966 11.1466C1.34589 11.2404 1.29321 11.3676 1.29321 11.5002C1.29321 11.6328 1.34589 11.76 1.43966 11.8538L1.79321 11.5002ZM2.14677 11.1466L2.50032 11.5002H2.50032L2.14677 11.1466ZM8.64677 4.64664L9.00032 5.0002V5.0002L8.64677 4.64664ZM9.00032 4.29309L9.35387 3.93954C9.26011 3.84577 9.13293 3.79309 9.00032 3.79309C8.86771 3.79309 8.74053 3.84577 8.64677 3.93954L9.00032 4.29309ZM9.70743 5.7073L10.061 5.35375L9.35387 4.64664L9.00032 5.0002L9.70743 5.7073ZM4.06098 11.3538L9.70743 5.7073L9.00032 5.0002L3.35387 10.6466L4.06098 11.3538ZM21.5003 10.5002H3.70743V11.5002H21.5003V10.5002ZM22.0003 10.5002H21.5003V11.5002H22.0003V10.5002ZM22.5003 12.0002V11.0002H21.5003V12.0002H22.5003ZM21.5003 12.5002H22.0003V11.5002H21.5003V12.5002ZM3.70743 12.5002H21.5003V11.5002H3.70743V12.5002ZM9.70743 17.2931L4.06098 11.6466L3.35387 12.3538L9.00032 18.0002L9.70743 17.2931ZM10.061 17.6466L9.70743 17.2931L9.00032 18.0002L9.35387 18.3538L10.061 17.6466ZM9.35387 19.0609L10.061 18.3538L9.35387 17.6466L8.64677 18.3538L9.35387 19.0609ZM8.29321 18.7073L8.64677 19.0609L9.35387 18.3538L9.00032 18.0002L8.29321 18.7073ZM1.79321 12.2073L8.29321 18.7073L9.00032 18.0002L2.50032 11.5002L1.79321 12.2073ZM1.43966 11.8538L1.79321 12.2073L2.50032 11.5002L2.14677 11.1466L1.43966 11.8538ZM1.79321 10.7931L1.43966 11.1466L2.14677 11.8538L2.50032 11.5002L1.79321 10.7931ZM8.29321 4.29309L1.79321 10.7931L2.50032 11.5002L9.00032 5.0002L8.29321 4.29309ZM8.64677 3.93954L8.29321 4.29309L9.00032 5.0002L9.35387 4.64664L8.64677 3.93954ZM10.061 4.64664L9.35387 3.93954L8.64677 4.64664L9.35387 5.35375L10.061 4.64664Z" fill="#C5C5C5"/>
</svg>
