<svg width="24" height="24" viewBox="0 0 24 24" fill="none" xmlns="http://www.w3.org/2000/svg">
<path fill-rule="evenodd" clip-rule="evenodd" d="M8.94103 1.04999H9.25005H14.75H15.0591L15.1973 1.32638L16.1591 3.24999H22.45H22.95V4.24999H22.45H15.85H8.15005H1.55005H1.05005V3.24999H1.55005H7.84103L8.80284 1.32638L8.94103 1.04999ZM8.95907 3.24999H15.041L14.441 2.04999H9.55907L8.95907 3.24999ZM3.17896 5.44999H3.75005H20.25H20.8211L20.7457 6.01607L18.5457 22.5161L18.4878 22.95H18.05H5.95005H5.51229L5.45443 22.5161L3.25444 6.01607L3.17896 5.44999ZM4.32114 6.44999L6.38781 21.95H17.6123L19.679 6.44999H4.32114ZM8.59782 8.15272L8.64757 8.65024L9.74757 19.6502L9.79732 20.1478L8.80228 20.2473L8.75253 19.7497L7.65253 8.74974L7.60278 8.25222L8.59782 8.15272ZM16.3973 8.25222L16.3476 8.74974L15.2476 19.7497L15.1978 20.2473L14.2028 20.1478L14.2525 19.6502L15.3525 8.65024L15.4023 8.15272L16.3973 8.25222ZM12.5 8.19999V8.69999V19.7V20.2H11.5V19.7V8.69999V8.19999H12.5Z" fill="#C5C5C5"/>
<path d="M8.94103 1.04999V0.799988H8.78652L8.71742 0.938184L8.94103 1.04999ZM15.0591 1.04999L15.2827 0.938184L15.2136 0.799988H15.0591V1.04999ZM15.1973 1.32638L15.4209 1.21458V1.21458L15.1973 1.32638ZM16.1591 3.24999L15.9355 3.36179L16.0046 3.49999H16.1591V3.24999ZM22.95 3.24999H23.2V2.99999H22.95V3.24999ZM22.95 4.24999V4.49999H23.2V4.24999H22.95ZM1.05005 4.24999H0.800049V4.49999H1.05005V4.24999ZM1.05005 3.24999V2.99999H0.800049V3.24999H1.05005ZM7.84103 3.24999V3.49999H7.99554L8.06464 3.36179L7.84103 3.24999ZM8.80284 1.32638L9.02644 1.43818L9.02644 1.43818L8.80284 1.32638ZM15.041 3.24999V3.49999H15.4455L15.2646 3.13818L15.041 3.24999ZM8.95907 3.24999L8.73546 3.13818L8.55456 3.49999H8.95907V3.24999ZM14.441 2.04999L14.6646 1.93818L14.5955 1.79999H14.441V2.04999ZM9.55907 2.04999V1.79999H9.40456L9.33546 1.93818L9.55907 2.04999ZM3.17896 5.44999V5.19999H2.89341L2.93115 5.48303L3.17896 5.44999ZM20.8211 5.44999L21.0689 5.48303L21.1067 5.19999H20.8211V5.44999ZM20.7457 6.01607L20.4979 5.98303L20.7457 6.01607ZM18.5457 22.5161L18.2979 22.483L18.5457 22.5161ZM18.4878 22.95V23.2H18.7067L18.7356 22.983L18.4878 22.95ZM5.51229 22.95L5.26448 22.983L5.29341 23.2H5.51229V22.95ZM5.45443 22.5161L5.20663 22.5491L5.45443 22.5161ZM3.25444 6.01607L3.50224 5.98303L3.25444 6.01607ZM6.38781 21.95L6.14 21.983L6.16893 22.2H6.38781V21.95ZM4.32114 6.44999V6.19999H4.03559L4.07333 6.48303L4.32114 6.44999ZM17.6123 21.95V22.2H17.8312L17.8601 21.983L17.6123 21.95ZM19.679 6.44999L19.9268 6.48303L19.9645 6.19999H19.679V6.44999ZM8.64757 8.65024L8.89633 8.62536L8.64757 8.65024ZM8.59782 8.15272L8.84657 8.12784L8.8217 7.87908L8.57294 7.90396L8.59782 8.15272ZM9.74757 19.6502L9.49881 19.6751L9.74757 19.6502ZM9.79732 20.1478L9.8222 20.3965L10.071 20.3716L10.0461 20.1229L9.79732 20.1478ZM8.80228 20.2473L8.55352 20.2721L8.5784 20.5209L8.82716 20.496L8.80228 20.2473ZM8.75253 19.7497L9.00129 19.7249L8.75253 19.7497ZM7.65253 8.74974L7.40377 8.77462L7.65253 8.74974ZM7.60278 8.25222L7.5779 8.00346L7.32914 8.02834L7.35402 8.2771L7.60278 8.25222ZM16.3476 8.74974L16.0988 8.72486L16.3476 8.74974ZM16.3973 8.25222L16.6461 8.2771L16.671 8.02834L16.4222 8.00346L16.3973 8.25222ZM15.2476 19.7497L15.4963 19.7746L15.2476 19.7497ZM15.1978 20.2473L15.1729 20.496L15.4217 20.5209L15.4466 20.2721L15.1978 20.2473ZM14.2028 20.1478L13.954 20.1229L13.9291 20.3716L14.1779 20.3965L14.2028 20.1478ZM14.2525 19.6502L14.0038 19.6254L14.2525 19.6502ZM15.3525 8.65024L15.1038 8.62536L15.3525 8.65024ZM15.4023 8.15272L15.4272 7.90396L15.1784 7.87908L15.1535 8.12784L15.4023 8.15272ZM12.5 8.19999H12.75V7.94999H12.5V8.19999ZM12.5 20.2V20.45H12.75V20.2H12.5ZM11.5 20.2H11.25V20.45H11.5V20.2ZM11.5 8.19999V7.94999H11.25V8.19999H11.5ZM9.25005 0.799988H8.94103V1.29999H9.25005V0.799988ZM14.75 0.799988H9.25005V1.29999H14.75V0.799988ZM15.0591 0.799988H14.75V1.29999H15.0591V0.799988ZM15.4209 1.21458L15.2827 0.938184L14.8355 1.16179L14.9737 1.43818L15.4209 1.21458ZM16.3827 3.13818L15.4209 1.21458L14.9737 1.43818L15.9355 3.36179L16.3827 3.13818ZM22.45 2.99999H16.1591V3.49999H22.45V2.99999ZM22.95 2.99999H22.45V3.49999H22.95V2.99999ZM23.2 4.24999V3.24999H22.7V4.24999H23.2ZM22.45 4.49999H22.95V3.99999H22.45V4.49999ZM15.85 4.49999H22.45V3.99999H15.85V4.49999ZM8.15005 4.49999H15.85V3.99999H8.15005V4.49999ZM1.55005 4.49999H8.15005V3.99999H1.55005V4.49999ZM1.05005 4.49999H1.55005V3.99999H1.05005V4.49999ZM0.800049 3.24999V4.24999H1.30005V3.24999H0.800049ZM1.55005 2.99999H1.05005V3.49999H1.55005V2.99999ZM7.84103 2.99999H1.55005V3.49999H7.84103V2.99999ZM8.57923 1.21458L7.61743 3.13818L8.06464 3.36179L9.02644 1.43818L8.57923 1.21458ZM8.71742 0.938184L8.57923 1.21458L9.02644 1.43818L9.16464 1.16179L8.71742 0.938184ZM15.041 2.99999H8.95907V3.49999H15.041V2.99999ZM14.2174 2.16179L14.8174 3.36179L15.2646 3.13818L14.6646 1.93818L14.2174 2.16179ZM9.55907 2.29999H14.441V1.79999H9.55907V2.29999ZM9.18267 3.36179L9.78267 2.16179L9.33546 1.93818L8.73546 3.13818L9.18267 3.36179ZM3.75005 5.19999H3.17896V5.69999H3.75005V5.19999ZM20.25 5.19999H3.75005V5.69999H20.25V5.19999ZM20.8211 5.19999H20.25V5.69999H20.8211V5.19999ZM20.9935 6.04911L21.0689 5.48303L20.5733 5.41695L20.4979 5.98303L20.9935 6.04911ZM18.7935 22.5491L20.9935 6.04911L20.4979 5.98303L18.2979 22.483L18.7935 22.5491ZM18.7356 22.983L18.7935 22.5491L18.2979 22.483L18.24 22.9169L18.7356 22.983ZM18.05 23.2H18.4878V22.7H18.05V23.2ZM5.95005 23.2H18.05V22.7H5.95005V23.2ZM5.51229 23.2H5.95005V22.7H5.51229V23.2ZM5.20663 22.5491L5.26448 22.983L5.7601 22.9169L5.70224 22.483L5.20663 22.5491ZM3.00663 6.04911L5.20663 22.5491L5.70224 22.483L3.50224 5.98303L3.00663 6.04911ZM2.93115 5.48303L3.00663 6.04911L3.50224 5.98303L3.42676 5.41695L2.93115 5.48303ZM6.63561 21.9169L4.56895 6.41695L4.07333 6.48303L6.14 21.983L6.63561 21.9169ZM17.6123 21.7H6.38781V22.2H17.6123V21.7ZM19.4312 6.41695L17.3645 21.9169L17.8601 21.983L19.9268 6.48303L19.4312 6.41695ZM4.32114 6.69999H19.679V6.19999H4.32114V6.69999ZM8.89633 8.62536L8.84657 8.12784L8.34906 8.17759L8.39881 8.67511L8.89633 8.62536ZM9.99633 19.6254L8.89633 8.62536L8.39881 8.67511L9.49881 19.6751L9.99633 19.6254ZM10.0461 20.1229L9.99633 19.6254L9.49881 19.6751L9.54856 20.1726L10.0461 20.1229ZM8.82716 20.496L9.8222 20.3965L9.77244 19.899L8.77741 19.9985L8.82716 20.496ZM8.50377 19.7746L8.55352 20.2721L9.05104 20.2224L9.00129 19.7249L8.50377 19.7746ZM7.40377 8.77462L8.50377 19.7746L9.00129 19.7249L7.90129 8.72486L7.40377 8.77462ZM7.35402 8.2771L7.40377 8.77462L7.90129 8.72486L7.85154 8.22734L7.35402 8.2771ZM8.57294 7.90396L7.5779 8.00346L7.62765 8.50098L8.62269 8.40148L8.57294 7.90396ZM16.5963 8.77462L16.6461 8.2771L16.1486 8.22734L16.0988 8.72486L16.5963 8.77462ZM15.4963 19.7746L16.5963 8.77462L16.0988 8.72486L14.9988 19.7249L15.4963 19.7746ZM15.4466 20.2721L15.4963 19.7746L14.9988 19.7249L14.9491 20.2224L15.4466 20.2721ZM14.1779 20.3965L15.1729 20.496L15.2227 19.9985L14.2277 19.899L14.1779 20.3965ZM14.0038 19.6254L13.954 20.1229L14.4515 20.1726L14.5013 19.6751L14.0038 19.6254ZM15.1038 8.62536L14.0038 19.6254L14.5013 19.6751L15.6013 8.67511L15.1038 8.62536ZM15.1535 8.12784L15.1038 8.62536L15.6013 8.67511L15.651 8.17759L15.1535 8.12784ZM16.4222 8.00346L15.4272 7.90396L15.3774 8.40148L16.3724 8.50098L16.4222 8.00346ZM12.75 8.69999V8.19999H12.25V8.69999H12.75ZM12.75 19.7V8.69999H12.25V19.7H12.75ZM12.75 20.2V19.7H12.25V20.2H12.75ZM11.5 20.45H12.5V19.95H11.5V20.45ZM11.25 19.7V20.2H11.75V19.7H11.25ZM11.25 8.69999V19.7H11.75V8.69999H11.25ZM11.25 8.19999V8.69999H11.75V8.19999H11.25ZM12.5 7.94999H11.5V8.44999H12.5V7.94999Z" fill="#C5C5C5"/>
</svg>
