<svg width="24" height="24" viewBox="0 0 24 24" fill="none" xmlns="http://www.w3.org/2000/svg">
<path fill-rule="evenodd" clip-rule="evenodd" d="M13 0.500046V1.50005V2.55205C17.448 3.01737 20.9827 6.55202 21.448 11H22.5H23.5V13H22.5H21.448C20.9827 17.4481 17.448 20.9827 13 21.448V22.5V23.5H11V22.5V21.448C6.55197 20.9827 3.01732 17.4481 2.552 13H1.5H0.5V11H1.5H2.552C3.01732 6.55202 6.55197 3.01737 11 2.55205V1.50005V0.500046H13ZM11 4.56613C7.65778 5.01144 5.01139 7.65782 4.56609 11H5.5H6.5V13H5.5H4.56609C5.01139 16.3423 7.65778 18.9887 11 19.434V18.5V17.5H13V18.5V19.434C16.3422 18.9887 18.9886 16.3423 19.4339 13H18.5H17.5V11H18.5H19.4339C18.9886 7.65782 16.3422 5.01144 13 4.56613V5.50005V6.50005H11V5.50005V4.56613ZM12 10C10.8954 10 10 10.8955 10 12C10 13.1046 10.8954 14 12 14C13.1046 14 14 13.1046 14 12C14 10.8955 13.1046 10 12 10ZM8 12C8 9.79091 9.79086 8.00005 12 8.00005C14.2091 8.00005 16 9.79091 16 12C16 14.2092 14.2091 16 12 16C9.79086 16 8 14.2092 8 12Z" fill="#218D87"/>
</svg>
