<svg width="24" height="24" viewBox="0 0 24 24" fill="none" xmlns="http://www.w3.org/2000/svg">
<path fill-rule="evenodd" clip-rule="evenodd" d="M20.4999 0.792877L20.8534 1.14643L22.8534 3.14643L23.207 3.49998L22.8534 3.85354L21.3534 5.35352L21.3534 5.35354L20 6.70708V21.5V22H19.5H2.5H2V21.5V4.49998V3.99998H2.5H17.2928L18.6463 2.64643L20.1463 1.14643L20.4999 0.792877ZM16.2928 4.99998H3V21H19V7.70708L9.85343 16.8535L9.70698 17H9.49988H7.49988H6.99988V16.5V14.5V14.2929L7.14632 14.1464L16.2928 4.99998ZM19.1464 6.14643L20.2928 5L18.9999 3.70709L17.8534 4.85354L7.99988 14.7071V16H9.29277L19.1464 6.14644L19.1464 6.14643ZM19.707 2.99998L20.9999 4.29288L21.7928 3.49998L20.4999 2.20709L19.707 2.99998Z" fill="#C5C5C5"/>
<path d="M20.8534 1.14643L21.207 0.792877V0.792877L20.8534 1.14643ZM20.4999 0.792877L20.8534 0.439324L20.4999 0.0857708L20.1463 0.439324L20.4999 0.792877ZM22.8534 3.14643L22.4999 3.49998L22.8534 3.14643ZM23.207 3.49998L23.5605 3.85354L23.9141 3.49998L23.5605 3.14643L23.207 3.49998ZM22.8534 3.85354L22.4999 3.49998V3.49998L22.8534 3.85354ZM21.3534 5.35352L20.9999 4.99997L20.9938 5.00606L20.9879 5.01236L21.3534 5.35352ZM21.3534 5.35354L21.707 5.70708L21.7131 5.70099L21.719 5.6947L21.3534 5.35354ZM20 6.70708L19.6464 6.35354L19.5 6.49998V6.70708H20ZM20 22V22.5H20.5V22H20ZM2 22H1.5V22.5H2V22ZM2 3.99998V3.49998H1.5V3.99998H2ZM17.2928 3.99998V4.49998H17.4999L17.6463 4.35354L17.2928 3.99998ZM18.6463 2.64643L18.9999 2.99998L18.6463 2.64643ZM20.1463 1.14643L19.7928 0.792877V0.792877L20.1463 1.14643ZM3 4.99998V4.49998H2.5V4.99998H3ZM16.2928 4.99998L16.6463 5.35354L17.4999 4.49998H16.2928V4.99998ZM3 21H2.5V21.5H3V21ZM19 21V21.5H19.5V21H19ZM19 7.70708H19.5V6.49998L18.6464 7.35353L19 7.70708ZM9.85343 16.8535L10.207 17.2071L9.85343 16.8535ZM9.70698 17V17.5H9.91409L10.0605 17.3535L9.70698 17ZM6.99988 17H6.49988V17.5H6.99988V17ZM6.99988 14.2929L6.64632 13.9393L6.49988 14.0858V14.2929H6.99988ZM7.14632 14.1464L6.79277 13.7929H6.79277L7.14632 14.1464ZM20.2928 5L20.6464 5.35354L20.9999 4.99998L20.6463 4.64645L20.2928 5ZM19.1464 6.14643L18.7929 5.79289L18.785 5.80079L18.7774 5.80904L19.1464 6.14643ZM18.9999 3.70709L19.3534 3.35354L18.9999 2.99998L18.6463 3.35354L18.9999 3.70709ZM17.8534 4.85354L17.4999 4.49998L17.4999 4.49998L17.8534 4.85354ZM7.99988 14.7071L7.64632 14.3535L7.49988 14.5V14.7071H7.99988ZM7.99988 16H7.49988V16.5H7.99988V16ZM9.29277 16V16.5H9.49988L9.64632 16.3535L9.29277 16ZM19.1464 6.14644L19.5 6.5L19.5079 6.49209L19.5154 6.48383L19.1464 6.14644ZM20.9999 4.29288L20.6463 4.64643L20.9999 4.99998L21.3534 4.64643L20.9999 4.29288ZM19.707 2.99998L19.3534 2.64643L18.9999 2.99998L19.3534 3.35354L19.707 2.99998ZM21.7928 3.49998L22.1463 3.85354L22.4999 3.49998L22.1463 3.14643L21.7928 3.49998ZM20.4999 2.20709L20.8534 1.85354L20.4999 1.49998L20.1463 1.85354L20.4999 2.20709ZM21.207 0.792877L20.8534 0.439324L20.1463 1.14643L20.4999 1.49998L21.207 0.792877ZM23.207 2.79288L21.207 0.792877L20.4999 1.49998L22.4999 3.49998L23.207 2.79288ZM23.5605 3.14643L23.207 2.79288L22.4999 3.49998L22.8534 3.85354L23.5605 3.14643ZM23.207 4.20709L23.5605 3.85354L22.8534 3.14643L22.4999 3.49998L23.207 4.20709ZM21.707 5.70708L23.207 4.20709L22.4999 3.49998L20.9999 4.99997L21.707 5.70708ZM21.719 5.6947L21.719 5.69468L20.9879 5.01236L20.9879 5.01238L21.719 5.6947ZM20.3536 7.06062L21.707 5.70708L20.9999 5L19.6464 6.35354L20.3536 7.06062ZM20.5 21.5V6.70708H19.5V21.5H20.5ZM20.5 22V21.5H19.5V22H20.5ZM19.5 22.5H20V21.5H19.5V22.5ZM2.5 22.5H19.5V21.5H2.5V22.5ZM2 22.5H2.5V21.5H2V22.5ZM1.5 21.5V22H2.5V21.5H1.5ZM1.5 4.49998V21.5H2.5V4.49998H1.5ZM1.5 3.99998V4.49998H2.5V3.99998H1.5ZM2.5 3.49998H2V4.49998H2.5V3.49998ZM17.2928 3.49998H2.5V4.49998H17.2928V3.49998ZM18.2928 2.29288L16.9392 3.64643L17.6463 4.35354L18.9999 2.99998L18.2928 2.29288ZM19.7928 0.792877L18.2928 2.29288L18.9999 2.99998L20.4999 1.49998L19.7928 0.792877ZM20.1463 0.439324L19.7928 0.792877L20.4999 1.49998L20.8534 1.14643L20.1463 0.439324ZM3 5.49998H16.2928V4.49998H3V5.49998ZM3.5 21V4.99998H2.5V21H3.5ZM19 20.5H3V21.5H19V20.5ZM18.5 7.70708V21H19.5V7.70708H18.5ZM10.207 17.2071L19.3536 8.06064L18.6464 7.35353L9.49988 16.5L10.207 17.2071ZM10.0605 17.3535L10.207 17.2071L9.49988 16.5L9.35343 16.6464L10.0605 17.3535ZM9.49988 17.5H9.70698V16.5H9.49988V17.5ZM7.49988 17.5H9.49988V16.5H7.49988V17.5ZM6.99988 17.5H7.49988V16.5H6.99988V17.5ZM6.49988 16.5V17H7.49988V16.5H6.49988ZM6.49988 14.5V16.5H7.49988V14.5H6.49988ZM6.49988 14.2929V14.5H7.49988V14.2929H6.49988ZM6.79277 13.7929L6.64632 13.9393L7.35343 14.6464L7.49988 14.5L6.79277 13.7929ZM15.9392 4.64643L6.79277 13.7929L7.49988 14.5L16.6463 5.35354L15.9392 4.64643ZM19.9392 4.64646L18.7929 5.79289L19.5 6.49997L20.6464 5.35354L19.9392 4.64646ZM18.6463 4.06064L19.9392 5.35355L20.6463 4.64645L19.3534 3.35354L18.6463 4.06064ZM18.207 5.20709L19.3534 4.06064L18.6463 3.35354L17.4999 4.49998L18.207 5.20709ZM8.35343 15.0606L18.207 5.20709L17.4999 4.49998L7.64632 14.3535L8.35343 15.0606ZM8.49988 16V14.7071H7.49988V16H8.49988ZM9.29277 15.5H7.99988V16.5H9.29277V15.5ZM18.7929 5.79289L8.93922 15.6464L9.64632 16.3535L19.5 6.5L18.7929 5.79289ZM18.7774 5.80904L18.7774 5.80906L19.5154 6.48383L19.5155 6.48381L18.7774 5.80904ZM21.3534 3.93932L20.0605 2.64643L19.3534 3.35354L20.6463 4.64643L21.3534 3.93932ZM21.4392 3.14643L20.6463 3.93932L21.3534 4.64643L22.1463 3.85354L21.4392 3.14643ZM20.1463 2.56064L21.4392 3.85354L22.1463 3.14643L20.8534 1.85354L20.1463 2.56064ZM20.0605 3.35354L20.8534 2.56064L20.1463 1.85354L19.3534 2.64643L20.0605 3.35354Z" fill="#C5C5C5"/>
</svg>
